<svg xmlns="http://www.w3.org/2000/svg" width="36" height="27" viewBox="0 0 36 27" fill="none">
  <path d="M11.7497 21.6875L4.52049 14.4583C4.13095 14.0688 3.60262 13.8499 3.05174 13.8499C2.50085 13.8499 1.97252 14.0688 1.58299 14.4583C1.19345 14.8478 0.974609 15.3762 0.974609 15.9271C0.974609 16.1998 1.02834 16.4699 1.13272 16.7219C1.23711 16.974 1.39011 17.2029 1.58299 17.3958L10.2913 26.1041C11.1038 26.9166 12.4163 26.9166 13.2288 26.1041L35.2705 4.06248C35.66 3.67294 35.8789 3.14462 35.8789 2.59373C35.8789 2.04284 35.66 1.51451 35.2705 1.12498C34.881 0.735441 34.3526 0.516602 33.8017 0.516602C33.2508 0.516602 32.7225 0.735441 32.333 1.12498L11.7497 21.6875Z" fill="#02BA02"/>
</svg>



