<svg xmlns="http://www.w3.org/2000/svg" width="34" height="34" viewBox="0 0 34 34" fill="none">
  <path d="M32.7209 29.4045C33.1612 29.8448 33.4085 30.4419 33.4085 31.0646C33.4085 31.6873 33.1612 32.2845 32.7209 32.7248C32.2806 33.1651 31.6834 33.4124 31.0607 33.4124C30.438 33.4124 29.8408 33.1651 29.4005 32.7248L17.0002 20.3205L4.59586 32.7209C4.15556 33.1612 3.55839 33.4085 2.93571 33.4085C2.31303 33.4085 1.71585 33.1612 1.27555 32.7209C0.835249 32.2806 0.587891 31.6834 0.587891 31.0607C0.587891 30.438 0.835249 29.8409 1.27555 29.4006L13.6798 17.0002L1.27946 4.59586C0.839155 4.15556 0.591797 3.55839 0.591797 2.93571C0.591797 2.31303 0.839155 1.71585 1.27946 1.27555C1.71976 0.835249 2.31693 0.58789 2.93961 0.58789C3.56229 0.58789 4.15947 0.835249 4.59977 1.27555L17.0002 13.6798L29.4045 1.2736C29.8448 0.833296 30.4419 0.585937 31.0646 0.585938C31.6873 0.585938 32.2845 0.833295 32.7248 1.2736C33.1651 1.7139 33.4124 2.31107 33.4124 2.93375C33.4124 3.55643 33.1651 4.15361 32.7248 4.59391L20.3205 17.0002L32.7209 29.4045Z" fill="#DC0000"/>
</svg>